<svg width="27" height="28" viewBox="0 0 27 28" fill="none" xmlns="http://www.w3.org/2000/svg">
<path d="M11.8896 21.2641L12.8711 20.6916C14.3863 19.8077 15.1439 19.3658 15.2496 18.9664C15.3407 18.6218 15.2413 18.2549 14.9886 18.0033C14.6958 17.7116 13.8184 17.7116 12.0638 17.7116H12.0638L11.0823 17.7116C10.5219 17.7116 10.2418 17.7116 10.0277 17.8205C9.83947 17.9164 9.6864 18.0692 9.59047 18.2573C9.48142 18.4711 9.48142 18.751 9.48142 19.3107V19.3107L9.48142 19.8832C9.48142 20.7967 9.48141 21.2534 9.67338 21.5165C9.84081 21.746 10.098 21.8935 10.3808 21.9222C10.7051 21.9551 11.0999 21.7247 11.8896 21.2641Z" fill="#061A86"/>
<path d="M11.8896 21.2641L12.8711 20.6916C14.3863 19.8077 15.1439 19.3658 15.2496 18.9664C15.3407 18.6218 15.2413 18.2549 14.9886 18.0033C14.6958 17.7116 13.8184 17.7116 12.0638 17.7116H12.0638L11.0823 17.7116C10.5219 17.7116 10.2418 17.7116 10.0277 17.8205C9.83947 17.9164 9.6864 18.0692 9.59047 18.2573C9.48142 18.4711 9.48142 18.751 9.48142 19.3107V19.3107L9.48142 19.8832C9.48142 20.7967 9.48141 21.2534 9.67338 21.5165C9.84081 21.746 10.098 21.8935 10.3808 21.9222C10.7051 21.9551 11.0999 21.7247 11.8896 21.2641Z" fill="black" fill-opacity="0.2"/>
<rect x="5" y="8.46729" width="16" height="10" rx="2" fill="white"/>
<rect x="6" y="10.4673" width="14" height="2" rx="1" fill="white"/>
<rect x="6" y="10.4673" width="14" height="2" rx="1" fill="black" fill-opacity="0.2"/>
<rect x="6" y="14.4673" width="14" height="2" rx="1" fill="white"/>
<rect x="6" y="14.4673" width="14" height="2" rx="1" fill="black" fill-opacity="0.2"/>
</svg>
