<svg width="33" height="33" viewBox="0 0 33 33" fill="none" xmlns="http://www.w3.org/2000/svg">
<path d="M10.5583 23.1561L11.9597 22.7818C12.5151 22.6334 12.7929 22.5593 12.9148 22.4856C13.5295 22.1141 13.5635 21.2358 12.9794 20.8179C12.8636 20.7351 12.5912 20.6393 12.0465 20.4477L12.0465 20.4477C11.9513 20.4141 11.9036 20.3974 11.8601 20.3772C11.6444 20.2772 11.4714 20.1037 11.3721 19.8879C11.352 19.8443 11.3355 19.7969 11.3024 19.7019L11.3024 19.7019C11.1211 19.1813 11.0305 18.9211 10.9525 18.8089C10.5376 18.2113 9.64311 18.2423 9.27066 18.8671C9.20072 18.9845 9.12834 19.2504 8.98358 19.7823L8.59998 21.1917C8.36051 22.0715 8.24078 22.5114 8.35665 22.8154C8.4577 23.0805 8.66679 23.2903 8.93178 23.3923C9.2356 23.5093 9.6765 23.3916 10.5583 23.1561Z" fill="#061A86"/>
<path d="M17.8791 11.2265L12.6064 12.6347C10.3436 13.239 9.21225 13.5412 8.89931 14.0544C8.6289 14.498 8.60753 15.0497 8.84282 15.5127C9.11512 16.0486 10.2198 16.4372 12.429 17.2144L13.1208 17.4577C13.5212 17.5986 13.7214 17.669 13.8882 17.785C14.036 17.8877 14.1641 18.0161 14.2664 18.1641C14.3818 18.3312 14.4516 18.5315 14.5911 18.932L14.809 19.5577C15.5782 21.766 15.9628 22.8702 16.4982 23.1442C16.9607 23.381 17.513 23.3619 17.9581 23.0936C18.4731 22.7832 18.7802 21.655 19.3943 19.3988L20.8166 14.173C21.1758 12.8533 21.3554 12.1934 21.1816 11.7375C21.03 11.3398 20.7163 11.0252 20.3189 10.8721C19.8631 10.6966 19.2018 10.8732 17.8791 11.2265Z" fill="white"/>
</svg>
