<svg width="33" height="31" viewBox="0 0 33 31" fill="none" xmlns="http://www.w3.org/2000/svg">
<path d="M12.5335 21.6525L14.8701 21.0285C16.1293 20.6922 16.7589 20.524 16.9645 20.2655C17.2362 19.924 17.2547 19.4459 17.0103 19.0844C16.8253 18.8108 16.2091 18.594 14.9768 18.1606L14.9768 18.1606L14.9768 18.1606C14.758 18.0836 14.6485 18.0451 14.5547 17.9864C14.425 17.9054 14.3157 17.7958 14.2351 17.666C14.1767 17.572 14.1387 17.4628 14.0626 17.2443C13.6439 16.0422 13.4346 15.4412 13.1702 15.256C12.8044 14.9997 12.3128 15.0167 11.9657 15.2978C11.7148 15.5008 11.5477 16.1149 11.2134 17.343L10.5752 19.6882C10.3357 20.568 10.216 21.0079 10.3318 21.3119C10.4329 21.577 10.642 21.7867 10.9069 21.8888C11.2108 22.0058 11.6517 21.888 12.5335 21.6525L12.5335 21.6525Z" fill="#061A86"/>
<path d="M17.5982 11.5282L11.5012 13.1565C9.23838 13.7609 8.10699 14.063 7.79405 14.5763C7.52364 15.0198 7.50227 15.5715 7.73756 16.0346C8.00986 16.5705 9.11448 16.9591 11.3237 17.7362L11.3237 17.7362L12.4622 18.1367C12.8626 18.2776 13.0628 18.348 13.2297 18.4639C13.3775 18.5667 13.5056 18.6951 13.6078 18.8431C13.7233 19.0102 13.793 19.2105 13.9325 19.611L14.3049 20.68C15.0741 22.8883 15.4586 23.9925 15.994 24.2665C16.4566 24.5033 17.0089 24.4842 17.4539 24.2159C17.9689 23.9055 18.276 22.7773 18.8901 20.521L20.5357 14.4747C20.8949 13.155 21.0745 12.4951 20.9007 12.0391C20.7492 11.6415 20.4355 11.3269 20.038 11.1738C19.5823 10.9983 18.921 11.1749 17.5982 11.5282Z" fill="white"/>
</svg>
