<svg width="27" height="31" viewBox="0 0 27 31" fill="none" xmlns="http://www.w3.org/2000/svg">
<path d="M11.7506 22.4383C12.1777 22.9721 12.3912 23.239 12.6492 23.3357C12.8754 23.4204 13.1246 23.4204 13.3508 23.3357C13.6088 23.239 13.8223 22.9721 14.2494 22.4383L14.9204 21.5995C15.5861 20.7673 15.919 20.3513 15.9194 20.0011C15.9197 19.6965 15.7812 19.4084 15.5432 19.2185C15.2696 19 14.7367 19 13.671 19H12.329C11.2633 19 10.7304 19 10.4568 19.2185C10.2188 19.4084 10.0803 19.6965 10.0806 20.0011C10.081 20.3513 10.4139 20.7673 11.0796 21.5995L11.7506 22.4383Z" fill="#061A86"/>
<path d="M10.956 10.3215C11.6324 9.22228 11.9707 8.67269 12.4053 8.48498C12.7848 8.32109 13.2152 8.32109 13.5947 8.48498C14.0293 8.67269 14.3676 9.22228 15.044 10.3215L18.749 16.3422C19.4845 17.5373 19.8522 18.1349 19.8102 18.6275C19.7736 19.0569 19.554 19.4498 19.2075 19.7061C18.81 20 18.1084 20 16.705 20H9.29495C7.89164 20 7.18998 20 6.79249 19.7061C6.44596 19.4498 6.2264 19.0569 6.18977 18.6275C6.14776 18.1349 6.5155 17.5373 7.25097 16.3422L10.956 10.3215Z" fill="#061A86"/>
</svg>
