<svg width="27" height="31" viewBox="0 0 27 31" fill="none" xmlns="http://www.w3.org/2000/svg">
<path d="M11.6687 23.0031C12.1138 23.6708 12.3364 24.0046 12.6169 24.1209C12.8622 24.2227 13.1378 24.2227 13.3831 24.1209C13.6636 24.0046 13.8862 23.6708 14.3313 23.0031L14.9012 22.1482C15.2918 21.5623 15.4871 21.2694 15.5276 21.0868C15.6617 20.4815 15.2185 19.9013 14.5993 19.8715C14.4125 19.8625 14.0785 19.9738 13.4105 20.1965C13.3173 20.2276 13.2707 20.2431 13.2239 20.2539C13.0765 20.2877 12.9235 20.2877 12.7761 20.2539C12.7293 20.2431 12.6827 20.2276 12.5895 20.1965C11.9215 19.9738 11.5875 19.8625 11.4007 19.8715C10.7815 19.9013 10.3383 20.4815 10.4724 21.0868C10.5129 21.2694 10.7082 21.5623 11.0988 22.1482L11.6687 23.0031Z" fill="#061A86"/>
<path d="M10.956 8.32147C11.6324 7.22228 11.9707 6.67269 12.4053 6.48498C12.7848 6.32109 13.2152 6.32109 13.5947 6.48498C14.0293 6.67269 14.3676 7.22228 15.044 8.32147L18.749 14.3422C19.4845 15.5373 19.8522 16.1349 19.8102 16.6275C19.7736 17.0569 19.554 17.4498 19.2075 17.7061C18.81 18 18.1084 18 16.705 18H9.29495C7.89164 18 7.18998 18 6.79249 17.7061C6.44596 17.4498 6.2264 17.0569 6.18977 16.6275C6.14776 16.1349 6.5155 15.5373 7.25097 14.3422L10.956 8.32147Z" fill="white"/>
</svg>
