<svg width="27" height="29" viewBox="0 0 27 29" fill="none" xmlns="http://www.w3.org/2000/svg">
<path d="M11.7506 21.4383C12.1777 21.9721 12.3912 22.239 12.6492 22.3357C12.8754 22.4204 13.1246 22.4204 13.3508 22.3357C13.6088 22.239 13.8223 21.9721 14.2494 21.4383L14.9204 20.5995C15.5861 19.7673 15.919 19.3513 15.9194 19.0011C15.9197 18.6965 15.7812 18.4084 15.5432 18.2185C15.2696 18 14.7367 18 13.671 18H12.329C11.2633 18 10.7304 18 10.4568 18.2185C10.2188 18.4084 10.0803 18.6965 10.0806 19.0011C10.081 19.3513 10.4139 19.7673 11.0796 20.5995L11.7506 21.4383Z" fill="#061A86"/>
<path d="M10.956 9.32147C11.6324 8.22228 11.9707 7.67269 12.4053 7.48498C12.7848 7.32109 13.2152 7.32109 13.5947 7.48498C14.0293 7.67269 14.3676 8.22228 15.044 9.32147L18.749 15.3422C19.4845 16.5373 19.8522 17.1349 19.8102 17.6275C19.7736 18.0569 19.554 18.4498 19.2075 18.7061C18.81 19 18.1084 19 16.705 19H9.29495C7.89164 19 7.18998 19 6.79249 18.7061C6.44596 18.4498 6.2264 18.0569 6.18977 17.6275C6.14776 17.1349 6.5155 16.5373 7.25097 15.3422L10.956 9.32147Z" fill="white"/>
</svg>
