<svg xmlns="http://www.w3.org/2000/svg" version="1.1" xmlns:xlink="http://www.w3.org/1999/xlink" xmlns:svgjs="http://svgjs.dev/svgjs" width="1000" height="1000" viewBox="0 0 1000 1000"><rect width="1000" height="1000" fill="#ffffff"></rect><g transform="matrix(0.7,0,0,0.7,149.5757585189553,417.56710618010914)"><svg viewBox="0 0 396 94" data-background-color="#ffffff" preserveAspectRatio="xMidYMid meet" height="237" width="1000" xmlns="http://www.w3.org/2000/svg" xmlns:xlink="http://www.w3.org/1999/xlink"><g id="tight-bounds" transform="matrix(1,0,0,1,0.23999946641959014,-0.24203283658394525)"><svg viewBox="0 0 395.52 94.48406567316788" height="94.48406567316788" width="395.52"><g><svg viewBox="0 0 618.3520541610781 147.71545331334335" height="94.48406567316788" width="395.52"><g><rect width="9.639024618050016" height="128.2623328335832" x="187.95998080467717" y="9.726560239880072" fill="#000000" opacity="1" stroke-width="0" stroke="transparent" fill-opacity="1" class="rect-o-0" data-fill-palette-color="primary" rx="1%" id="o-0" data-palette-color="#010c80"></rect></g><g transform="matrix(1,0,0,1,222.83205416107802,20.415087976012003)"><svg viewBox="0 0 395.52 106.88527736131934" height="106.88527736131934" width="395.52"><g id="textblocktransform"><svg viewBox="0 0 395.52 106.88527736131934" height="106.88527736131934" width="395.52" id="textblock"><g><svg viewBox="0 0 395.52 106.88527736131934" height="106.88527736131934" width="395.52"><g transform="matrix(1,0,0,1,0,0)"><svg width="395.52" viewBox="3.450000047683716 -35.29999923706055 133.38999938964844 36.04999923706055" height="106.88527736131934" data-palette-color="#010c80"><path d="M3.45-34.55L9.95-34.55 9.95-5.3 22.25-5.3 21.55 0 3.45 0 3.45-34.55ZM26.25-34.55L32.75-34.55 32.75 0 26.25 0 26.25-34.55ZM48.95-35.3Q52.25-35.3 54.72-34.25 57.2-33.2 59.3-31.05L59.3-31.05 56.2-27.5Q54.55-28.95 52.89-29.65 51.25-30.35 49.34-30.35L49.34-30.35Q47.25-30.35 45.97-29.25 44.7-28.15 44.7-26.2L44.7-26.2Q44.7-24.9 45.22-24 45.75-23.1 47.09-22.33 48.45-21.55 51-20.65L51-20.65Q55.65-18.95 57.92-16.6 60.2-14.25 60.2-9.85L60.2-9.85Q60.2-6.8 58.75-4.4 57.3-2 54.57-0.63 51.84 0.75 48.2 0.75L48.2 0.75Q41.34 0.75 36.74-3.95L36.74-3.95 40.05-7.6Q41.95-5.95 43.82-5.1 45.7-4.25 47.95-4.25L47.95-4.25Q50.5-4.25 51.97-5.65 53.45-7.05 53.45-9.5L53.45-9.5Q53.45-11.7 52.2-12.98 50.95-14.25 47.45-15.45L47.45-15.45Q42.45-17.2 40.24-19.6 38.05-22 38.05-25.75L38.05-25.75Q38.05-28.5 39.45-30.68 40.84-32.85 43.34-34.08 45.84-35.3 48.95-35.3L48.95-35.3ZM61.99-34.55L85.39-34.55 84.69-29.45 76.74-29.45 76.74 0 70.29 0 70.29-29.45 61.99-29.45 61.99-34.55ZM88.99-34.55L107.44-34.55 106.74-29.75 95.49-29.75 95.49-19.95 105.34-19.95 105.34-15.2 95.49-15.2 95.49-4.85 107.54-4.85 107.54 0 88.99 0 88.99-34.55ZM120.84-34.55Q125.54-34.55 129.01-33.2 132.49-31.85 134.66-28.08 136.84-24.3 136.84-17.45L136.84-17.45Q136.84-7.75 132.56-3.88 128.29 0 121.59 0L121.59 0 112.79 0 112.79-34.55 120.84-34.55ZM121.89-29.7L119.29-29.7 119.29-4.85 122.04-4.85Q125.89-4.85 128.01-7.55 130.14-10.25 130.14-17.45L130.14-17.45Q130.14-22.45 129.06-25.15 127.99-27.85 126.21-28.78 124.44-29.7 121.89-29.7L121.89-29.7Z" opacity="1" transform="matrix(1,0,0,1,0,0)" fill="#000000" class="wordmark-text-0" data-fill-palette-color="primary" id="text-0"></path></svg></g></svg></g></svg></g></svg></g><g><svg viewBox="0 0 162.72693206632636 147.71545331334335" height="147.71545331334335" width="162.72693206632636"><g><svg xmlns="http://www.w3.org/2000/svg" data-name="Layer 1" viewBox="0.9993118643760681 5.519999980926514 97.99561309814453 88.95556640625" x="0" y="0" height="147.71545331334335" width="162.72693206632636" class="icon-icon-0" data-fill-palette-color="accent" id="icon-0"><path d="M70.09 56.84a4.56 4.56 0 0 1 0.41 9.11h-0.21a4.56 4.56 0 0 1-0.2-9.11Zm-0.67-14.65a4.56 4.56 0 0 0 0.2 9.11h0.21a4.56 4.56 0 0 0 2.87-7.92A4.59 4.59 0 0 0 69.42 42.19Zm-0.67-14.65a4.56 4.56 0 0 0 0.2 9.11h0.21a4.56 4.56 0 0 0-0.41-9.11Zm24.7 0L90.3 26.23 90 18.91a9 9 0 0 0-9.41-8.58L51.13 11.71a17.6 17.6 0 0 1-0.28 9.82l-0.16 0.5 29.05-1.36 2.37 51.12L33.79 74A51.26 51.26 0 0 1 27.85 84.6l14.38-0.67 23.62 9.85a9 9 0 0 0 11.78-4.85l2.82-6.77L83.87 82a9 9 0 0 0 8.58-9.41l-0.8-17.29 6.66-16A9 9 0 0 0 93.46 27.55Zm-37 2.07l-8.3 0.36-2 6.2 10.57-0.46a3.05 3.05 0 0 0 2.91-3.19A3.07 3.07 0 0 0 56.43 29.62Zm0.67 14.65l-13.76 0.61-2 6.2 16-0.71a3.05 3.05 0 0 0-0.28-6.09ZM38.55 59.78l-2 6.2L58 65A3 3 0 0 0 60 59.72a3.09 3.09 0 0 0-2.19-0.8ZM8.34 88.56A2.76 2.76 0 0 0 11 90.47h0.22a2.73 2.73 0 0 0 1.42-0.53A44.45 44.45 0 0 0 28.48 67.8L44.05 19.35A10.59 10.59 0 0 0 34 5.52q-0.41 0-0.82 0a10.59 10.59 0 0 0-9.25 7.32l-1.3 4L17.9 15.4A8.14 8.14 0 0 0 15.41 15l-0.64 0a8.19 8.19 0 0 0-7.15 5.65l-6.44 20a3.75 3.75 0 0 0 3.57 4.9H5A3.75 3.75 0 0 0 8.32 43l6.44-20a0.67 0.67 0 0 1 0.59-0.46h0.05a0.68 0.68 0 0 1 0.2 0l4.7 1.51-12 37.27A44.45 44.45 0 0 0 8.34 88.56Z" fill="#000000" data-fill-palette-color="accent"></path></svg></g></svg></g></svg></g><defs></defs></svg><rect width="395.52" height="94.48406567316788" fill="none" stroke="none" visibility="hidden"></rect></g></svg></g></svg>