<svg width="27" height="31" viewBox="0 0 27 31" fill="none" xmlns="http://www.w3.org/2000/svg">
<path d="M12.7506 8.56174C13.1777 8.02789 13.3912 7.76097 13.6492 7.66433C13.8754 7.5796 14.1246 7.5796 14.3508 7.66433C14.6088 7.76097 14.8223 8.02789 15.2494 8.56174L15.9204 9.40049C16.5861 10.2327 16.919 10.6487 16.9194 10.9989C16.9197 11.3035 16.7812 11.5916 16.5432 11.7815C16.2696 12 15.7367 12 14.671 12H13.329C12.2633 12 11.7304 12 11.4568 11.7815C11.2188 11.5916 11.0803 11.3035 11.0806 10.9989C11.081 10.6487 11.4139 10.2327 12.0796 9.40049L12.7506 8.56174Z" fill="#061A86"/>
<path d="M11.956 20.6785C12.6324 21.7777 12.9707 22.3273 13.4053 22.515C13.7848 22.6789 14.2152 22.6789 14.5947 22.515C15.0293 22.3273 15.3676 21.7777 16.044 20.6785L19.749 14.6578C20.4845 13.4627 20.8522 12.8651 20.8102 12.3725C20.7736 11.9431 20.554 11.5502 20.2075 11.2939C19.81 11 19.1084 11 17.705 11H10.295C8.89164 11 8.18998 11 7.79249 11.2939C7.44596 11.5502 7.2264 11.9431 7.18977 12.3725C7.14776 12.8651 7.5155 13.4627 8.25097 14.6578L11.956 20.6785Z" fill="#061A86"/>
</svg>
