<svg width="27" height="29" viewBox="0 0 27 29" fill="none" xmlns="http://www.w3.org/2000/svg">
<path d="M12.7506 7.56174C13.1777 7.02789 13.3912 6.76097 13.6492 6.66433C13.8754 6.5796 14.1246 6.5796 14.3508 6.66433C14.6088 6.76097 14.8223 7.02789 15.2494 7.56174L15.9204 8.40049C16.5861 9.23266 16.919 9.64875 16.9194 9.99892C16.9197 10.3035 16.7812 10.5916 16.5432 10.7815C16.2696 11 15.7367 11 14.671 11H13.329C12.2633 11 11.7304 11 11.4568 10.7815C11.2188 10.5916 11.0803 10.3035 11.0806 9.99892C11.081 9.64875 11.4139 9.23266 12.0796 8.40049L12.7506 7.56174Z" fill="#061A86"/>
<path d="M11.956 19.6785C12.6324 20.7777 12.9707 21.3273 13.4053 21.515C13.7848 21.6789 14.2152 21.6789 14.5947 21.515C15.0293 21.3273 15.3676 20.7777 16.044 19.6785L19.749 13.6578C20.4845 12.4627 20.8522 11.8651 20.8102 11.3725C20.7736 10.9431 20.554 10.5502 20.2075 10.2939C19.81 10 19.1084 10 17.705 10H10.295C8.89164 10 8.18998 10 7.79249 10.2939C7.44596 10.5502 7.2264 10.9431 7.18977 11.3725C7.14776 11.8651 7.5155 12.4627 8.25097 13.6578L11.956 19.6785Z" fill="white"/>
</svg>
