<svg width="27" height="31" viewBox="0 0 27 31" fill="none" xmlns="http://www.w3.org/2000/svg">
<path d="M12.8259 7.76114C13.1297 7.30549 13.2816 7.07767 13.453 6.96564C13.7853 6.74849 14.2147 6.74849 14.547 6.96564C14.7184 7.07767 14.8703 7.3055 15.1741 7.76114L15.8296 8.74443C15.9616 8.94241 16.0276 9.0414 16.0527 9.08978C16.4694 9.89204 15.6923 10.7915 14.838 10.4957C14.7865 10.4778 14.679 10.4269 14.4639 10.325C14.4289 10.3084 14.4113 10.3001 14.3943 10.2928C14.1425 10.1848 13.8575 10.1848 13.6057 10.2928C13.5887 10.3001 13.5711 10.3084 13.5361 10.325C13.321 10.4269 13.2135 10.4778 13.162 10.4957C12.3077 10.7915 11.5306 9.89204 11.9473 9.08978C11.9724 9.0414 12.0384 8.94241 12.1704 8.74443L12.8259 7.76114Z" fill="#061A86"/>
<path d="M11.956 21.6785C12.6324 22.7777 12.9707 23.3273 13.4053 23.515C13.7848 23.6789 14.2152 23.6789 14.5947 23.515C15.0293 23.3273 15.3676 22.7777 16.044 21.6785L19.749 15.6578C20.4845 14.4627 20.8522 13.8651 20.8102 13.3725C20.7736 12.9431 20.554 12.5502 20.2075 12.2939C19.81 12 19.1084 12 17.705 12H10.295C8.89164 12 8.18998 12 7.79249 12.2939C7.44596 12.5502 7.2264 12.9431 7.18977 13.3725C7.14776 13.8651 7.5155 14.4627 8.25097 15.6578L11.956 21.6785Z" fill="white"/>
</svg>
